<svg width="900" height="600" viewBox="0 0 900 600" xmlns="http://www.w3.org/2000/svg">
  <!-- Fundo -->
  <rect width="900" height="600" fill="#f0f2f5" />
  
  <!-- Título -->
  <text x="450" y="40" font-family="Arial" font-size="24" font-weight="bold" text-anchor="middle" fill="#111">
    Monitoramento e Dashboards
  </text>
  
  <!-- Dashboards Principais -->
  <!-- Dashboard Operacional -->
  <rect x="50" y="80" width="380" height="220" rx="8" fill="#fff" stroke="#1890ff" stroke-width="2"/>
  <rect x="50" y="80" width="380" height="30" rx="8" fill="#1890ff" stroke="#1890ff" stroke-width="2"/>
  <text x="240" y="100" font-family="Arial" font-size="14" font-weight="bold" text-anchor="middle" fill="white">Dashboard Operacional</text>
  
  <!-- Gráficos no Dashboard Operacional -->
  <rect x="60" y="120" width="170" height="80" rx="4" fill="#e6f7ff" stroke="#1890ff" stroke-width="1"/>
  <text x="145" y="140" font-family="Arial" font-size="10" font-weight="bold" text-anchor="middle" fill="#0050b3">Status de Equipamentos</text>
  <rect x="70" y="150" width="40" height="40" rx="20" fill="#52c41a"/>
  <text x="90" y="175" font-family="Arial" font-size="12" font-weight="bold" text-anchor="middle" fill="white">85%</text>
  <rect x="120" y="150" width="40" height="40" rx="20" fill="#faad14"/>
  <text x="140" y="175" font-family="Arial" font-size="12" font-weight="bold" text-anchor="middle" fill="white">10%</text>
  <rect x="170" y="150" width="40" height="40" rx="20" fill="#f5222d"/>
  <text x="190" y="175" font-family="Arial" font-size="12" font-weight="bold" text-anchor="middle" fill="white">5%</text>
  
  <rect x="250" y="120" width="170" height="80" rx="4" fill="#e6f7ff" stroke="#1890ff" stroke-width="1"/>
  <text x="335" y="140" font-family="Arial" font-size="10" font-weight="bold" text-anchor="middle" fill="#0050b3">Telemetria em Tempo Real</text>
  <polyline points="260,190 270,170 280,180 290,160 300,165 310,155 320,170 330,150 340,160 350,140 360,150 370,130 380,140 390,120 400,130" fill="none" stroke="#1890ff" stroke-width="2"/>
  
  <rect x="60" y="210" width="170" height="80" rx="4" fill="#e6f7ff" stroke="#1890ff" stroke-width="1"/>
  <text x="145" y="230" font-family="Arial" font-size="10" font-weight="bold" text-anchor="middle" fill="#0050b3">Alertas Ativos</text>
  <rect x="70" y="240" width="150" height="15" rx="2" fill="#ffe58f" stroke="#faad14" stroke-width="1"/>
  <rect x="70" y="260" width="120" height="15" rx="2" fill="#ffccc7" stroke="#f5222d" stroke-width="1"/>
  <rect x="70" y="280" width="90" height="15" rx="2" fill="#ffccc7" stroke="#f5222d" stroke-width="1"/>
  
  <rect x="250" y="210" width="170" height="80" rx="4" fill="#e6f7ff" stroke="#1890ff" stroke-width="1"/>
  <text x="335" y="230" font-family="Arial" font-size="10" font-weight="bold" text-anchor="middle" fill="#0050b3">Taxa de Disponibilidade</text>
  <rect x="260" y="240" width="150" height="20" rx="2" fill="#f9f0ff" stroke="#722ed1" stroke-width="1"/>
  <rect x="260" y="240" width="140" height="20" rx="2" fill="#722ed1" stroke="#722ed1" stroke-width="0"/>
  <text x="335" y="255" font-family="Arial" font-size="12" font-weight="bold" text-anchor="middle" fill="white">99.7%</text>
  <text x="335" y="275" font-family="Arial" font-size="10" text-anchor="middle" fill="#333">Últimas 24 horas</text>
  
  <!-- Dashboard de Manutenção -->
  <rect x="50" y="320" width="380" height="220" rx="8" fill="#fff" stroke="#fa8c16" stroke-width="2"/>
  <rect x="50" y="320" width="380" height="30" rx="8" fill="#fa8c16" stroke="#fa8c16" stroke-width="2"/>
  <text x="240" y="340" font-family="Arial" font-size="14" font-weight="bold" text-anchor="middle" fill="white">Dashboard de Manutenção</text>
  
  <!-- Gráficos no Dashboard de Manutenção -->
  <rect x="60" y="360" width="170" height="80" rx="4" fill="#fff7e6" stroke="#fa8c16" stroke-width="1"/>
  <text x="145" y="380" font-family="Arial" font-size="10" font-weight="bold" text-anchor="middle" fill="#ad6800">Manutenções Programadas</text>
  <circle cx="105" cy="410" r="30" fill="#fff" stroke="#fa8c16" stroke-width="2"/>
  <text x="105" y="415" font-family="Arial" font-size="14" font-weight="bold" text-anchor="middle" fill="#fa8c16">12</text>
  <circle cx="185" cy="410" r="30" fill="#fa8c16" stroke="#fa8c16" stroke-width="2"/>
  <text x="185" y="415" font-family="Arial" font-size="14" font-weight="bold" text-anchor="middle" fill="white">5</text>
  <text x="105" y="450" font-family="Arial" font-size="10" text-anchor="middle" fill="#333">Agendadas</text>
  <text x="185" y="450" font-family="Arial" font-size="10" text-anchor="middle" fill="#333">Em Execução</text>
  
  <rect x="250" y="360" width="170" height="80" rx="4" fill="#fff7e6" stroke="#fa8c16" stroke-width="1"/>
  <text x="335" y="380" font-family="Arial" font-size="10" font-weight="bold" text-anchor="middle" fill="#ad6800">Previsão de Falhas</text>
  <rect x="260" y="390" width="20" height="40" fill="#ffbb96"/>
  <rect x="290" y="400" width="20" height="30" fill="#ffbb96"/>
  <rect x="320" y="385" width="20" height="45" fill="#ff7a45"/>
  <rect x="350" y="410" width="20" height="20" fill="#ffbb96"/>
  <rect x="380" y="395" width="20" height="35" fill="#ff7a45"/>
  <line x1="260" y1="430" x2="400" y2="430" stroke="#333" stroke-width="1"/>
  <text x="270" y="445" font-family="Arial" font-size="8" text-anchor="middle" fill="#333">Bomba 1</text>
  <text x="300" y="445" font-family="Arial" font-size="8" text-anchor="middle" fill="#333">Bomba 2</text>
  <text x="330" y="445" font-family="Arial" font-size="8" text-anchor="middle" fill="#333">Bomba 3</text>
  <text x="360" y="445" font-family="Arial" font-size="8" text-anchor="middle" fill="#333">Bomba 4</text>
  <text x="390" y="445" font-family="Arial" font-size="8" text-anchor="middle" fill="#333">Bomba 5</text>
  
  <rect x="60" y="450" width="170" height="80" rx="4" fill="#fff7e6" stroke="#fa8c16" stroke-width="1"/>
  <text x="145" y="470" font-family="Arial" font-size="10" font-weight="bold" text-anchor="middle" fill="#ad6800">Histórico de Manutenções</text>
  <polyline points="70,500 90,510 110,490 130,520 150,500 170,480 190,505 210,485 230,490" fill="none" stroke="#fa8c16" stroke-width="2"/>
  <line x1="70" y1="520" x2="230" y2="520" stroke="#333" stroke-width="1"/>
  <text x="150" y="535" font-family="Arial" font-size="8" text-anchor="middle" fill="#333">Últimos 30 dias</text>
  
  <rect x="250" y="450" width="170" height="80" rx="4" fill="#fff7e6" stroke="#fa8c16" stroke-width="1"/>
  <text x="335" y="470" font-family="Arial" font-size="10" font-weight="bold" text-anchor="middle" fill="#ad6800">Economia Estimada</text>
  <text x="335" y="500" font-family="Arial" font-size="18" font-weight="bold" text-anchor="middle" fill="#fa8c16">R$ 324.560</text>
  <text x="335" y="525" font-family="Arial" font-size="10" text-anchor="middle" fill="#333">Anual por Manutenção Preditiva</text>
  
  <!-- Dashboard de Segurança -->
  <rect x="470" y="80" width="380" height="220" rx="8" fill="#fff" stroke="#f5222d" stroke-width="2"/>
  <rect x="470" y="80" width="380" height="30" rx="8" fill="#f5222d" stroke="#f5222d" stroke-width="2"/>
  <text x="660" y="100" font-family="Arial" font-size="14" font-weight="bold" text-anchor="middle" fill="white">Dashboard de Segurança</text>
  
  <!-- Gráficos no Dashboard de Segurança -->
  <rect x="480" y="120" width="170" height="80" rx="4" fill="#fff1f0" stroke="#f5222d" stroke-width="1"/>
  <text x="565" y="140" font-family="Arial" font-size="10" font-weight="bold" text-anchor="middle" fill="#a8071a">FortiGate - Ameaças Bloqueadas</text>
  <circle cx="565" cy="170" r="30" fill="#fff" stroke="#f5222d" stroke-width="2"/>
  <text x="565" y="175" font-family="Arial" font-size="14" font-weight="bold" text-anchor="middle" fill="#f5222d">178</text>
  <text x="565" y="195" font-family="Arial" font-size="10" text-anchor="middle" fill="#333">Últimas 24 horas</text>
  
  <rect x="670" y="120" width="170" height="80" rx="4" fill="#fff1f0" stroke="#f5222d" stroke-width="1"/>
  <text x="755" y="140" font-family="Arial" font-size="10" font-weight="bold" text-anchor="middle" fill="#a8071a">FortiWeb - Ataques Web</text>
  <rect x="680" y="150" width="20" height="10" fill="#ffa39e"/>
  <rect x="680" y="160" width="20" height="30" fill="#ff7875"/>
  <rect x="710" y="150" width="20" height="40" fill="#ff4d4f"/>
  <rect x="740" y="150" width="20" height="15" fill="#ffa39e"/>
  <rect x="770" y="150" width="20" height="25" fill="#ff7875"/>
  <rect x="800" y="150" width="20" height="5" fill="#ffa39e"/>
  <line x1="680" y1="190" x2="820" y2="190" stroke="#333" stroke-width="1"/>
  <text x="690" y="205" font-family="Arial" font-size="8" text-anchor="middle" fill="#333">XSS</text>
  <text x="720" y="205" font-family="Arial" font-size="8" text-anchor="middle" fill="#333">SQLi</text>
  <text x="750" y="205" font-family="Arial" font-size="8" text-anchor="middle" fill="#333">CSRF</text>
  <text x="780" y="205" font-family="Arial" font-size="8" text-anchor="middle" fill="#333">Command</text>
  <text x="810" y="205" font-family="Arial" font-size="8" text-anchor="middle" fill="#333">Other</text>
  
  <rect x="480" y="210" width="170" height="80" rx="4" fill="#fff1f0" stroke="#f5222d" stroke-width="1"/>
  <text x="565" y="230" font-family="Arial" font-size="10" font-weight="bold" text-anchor="middle" fill="#a8071a">Top Origens de Ataques</text>
  <circle cx="565" cy="260" r="30" fill="#fff" stroke="#f5222d" stroke-width="2"/>
  <circle cx="565" cy="260" r="30" fill="none" stroke="#f5222d" stroke-width="7" stroke-dasharray="50 138"/>
  <circle cx="565" cy="260" r="30" fill="none" stroke="#fa8c16" stroke-width="7" stroke-dasharray="40 148" stroke-dashoffset="50"/>
  <circle cx="565" cy="260" r="30" fill="none" stroke="#faad14" stroke-width="7" stroke-dasharray="30 158" stroke-dashoffset="90"/>
  <circle cx="565" cy="260" r="30" fill="none" stroke="#13c2c2" stroke-width="7" stroke-dasharray="15 173" stroke-dashoffset="120"/>
  
  <rect x="670" y="210" width="170" height="80" rx="4" fill="#fff1f0" stroke="#f5222d" stroke-width="1"/>
  <text x="755" y="230" font-family="Arial" font-size="10" font-weight="bold" text-anchor="middle" fill="#a8071a">Postura de Segurança</text>
  <text x="710" y="255" font-family="Arial" font-size="10" text-anchor="middle" fill="#333">FortiManager</text>
  <rect x="760" y="245" width="70" height="15" rx="7" fill="#e6fffb"/>
  <rect x="760" y="245" width="60" height="15" rx="7" fill="#13c2c2"/>
  <text x="710" y="275" font-family="Arial" font-size="10" text-anchor="middle" fill="#333">OCI Security</text>
  <rect x="760" y="265" width="70" height="15" rx="7" fill="#e6fffb"/>
  <rect x="760" y="265" width="65" height="15" rx="7" fill="#13c2c2"/>
  <text x="710" y="295" font-family="Arial" font-size="10" text-anchor="middle" fill="#333">Vulnerabilidades</text>
  <rect x="760" y="285" width="70" height="15" rx="7" fill="#e6fffb"/>
  <rect x="760" y="285" width="55" height="15" rx="7" fill="#13c2c2"/>
  
  <!-- Dashboard de IA -->
  <rect x="470" y="320" width="380" height="220" rx="8" fill="#fff" stroke="#722ed1" stroke-width="2"/>
  <!-- Dashboard de IA -->
  <rect x="470" y="320" width="380" height="220" rx="8" fill="#fff" stroke="#722ed1" stroke-width="2"/>
  <rect x="470" y="320" width="380" height="30" rx="8" fill="#722ed1" stroke="#722ed1" stroke-width="2"/>
  <text x="660" y="340" font-family="Arial" font-size="14" font-weight="bold" text-anchor="middle" fill="white">Dashboard de IA e Predição</text>
  
  <!-- Gráficos no Dashboard de IA -->
  <rect x="480" y="360" width="170" height="80" rx="4" fill="#f9f0ff" stroke="#722ed1" stroke-width="1"/>
  <text x="565" y="380" font-family="Arial" font-size="10" font-weight="bold" text-anchor="middle" fill="#391085">Acurácia dos Modelos</text>
  <rect x="490" y="390" width="20" height="40" fill="#d3adf7"/>
  <rect x="520" y="400" width="20" height="30" fill="#b37feb"/>
  <rect x="550" y="385" width="20" height="45" fill="#9254de"/>
  <rect x="580" y="395" width="20" height="35" fill="#722ed1"/>
  <rect x="610" y="375" width="20" height="55" fill="#531dab"/>
  <line x1="490" y1="430" x2="630" y2="430" stroke="#333" stroke-width="1"/>
  <text x="500" y="445" font-family="Arial" font-size="8" text-anchor="middle" fill="#333">LSTM</text>
  <text x="530" y="445" font-family="Arial" font-size="8" text-anchor="middle" fill="#333">RF</text>
  <text x="560" y="445" font-family="Arial" font-size="8" text-anchor="middle" fill="#333">SVM</text>
  <text x="590" y="445" font-family="Arial" font-size="8" text-anchor="middle" fill="#333">CNN</text>
  <text x="620" y="445" font-family="Arial" font-size="8" text-anchor="middle" fill="#333">Transformer</text>
  
  <rect x="670" y="360" width="170" height="80" rx="4" fill="#f9f0ff" stroke="#722ed1" stroke-width="1"/>
  <text x="755" y="380" font-family="Arial" font-size="10" font-weight="bold" text-anchor="middle" fill="#391085">Previsão de Tempo até Falha</text>
  <polyline points="680,435 690,430 700,420 710,410 720,395 730,385 740,380 750,378 760,375 770,370 780,360 790,345 800,325 810,295 820,255 830,190" fill="none" stroke="#722ed1" stroke-width="2"/>
  <line x1="680" y1="435" x2="830" y2="435" stroke="#333" stroke-width="1"/>
  <text x="755" y="450" font-family="Arial" font-size="8" text-anchor="middle" fill="#333">Tempo (dias)</text>
  
  <rect x="480" y="450" width="170" height="80" rx="4" fill="#f9f0ff" stroke="#722ed1" stroke-width="1"/>
  <text x="565" y="470" font-family="Arial" font-size="10" font-weight="bold" text-anchor="middle" fill="#391085">Detecção de Anomalias</text>
  <polyline points="490,490 500,495 510,493 520,497 530,490 540,488 550,510 560,505 570,490 580,485 590,490 600,488 610,486 620,489 630,491" fill="none" stroke="#91caff" stroke-width="1"/>
  <polyline points="490,490 500,495 510,493 520,497 530,490 540,488 550,460 560,505 570,490 580,485 590,490 600,488 610,486 620,489 630,491" fill="none" stroke="#722ed1" stroke-width="2"/>
  <circle cx="550" cy="460" r="5" fill="#f5222d" stroke="#f5222d" stroke-width="1"/>
  <line x1="490" y1="520" x2="630" y2="520" stroke="#333" stroke-width="1"/>
  <text x="560" y="535" font-family="Arial" font-size="8" text-anchor="middle" fill="#333">Timestamp</text>
  
  <rect x="670" y="450" width="170" height="80" rx="4" fill="#f9f0ff" stroke="#722ed1" stroke-width="1"/>
  <text x="755" y="470" font-family="Arial" font-size="10" font-weight="bold" text-anchor="middle" fill="#391085">Performance dos Modelos</text>
  <path d="M690,500 A45,45 0 1,1 800,500" fill="none" stroke="#722ed1" stroke-width="20" stroke-dasharray="230 283"/>
  <text x="755" y="500" font-family="Arial" font-size="16" font-weight="bold" text-anchor="middle" fill="#391085">82%</text>
  <text x="755" y="520" font-family="Arial" font-size="10" text-anchor="middle" fill="#333">F1-Score Médio</text>
  
  <!-- Definição de Setas -->
  <defs>
    <marker id="arrowhead" markerWidth="10" markerHeight="7" refX="9" refY="3.5" orient="auto">
      <polygon points="0 0, 10 3.5, 0 7" fill="#333"/>
    </marker>
  </defs>
</svg>